<svg width="512" height="512" viewBox="0 0 512 512" fill="none" xmlns="http://www.w3.org/2000/svg">
  <defs>
    <linearGradient id="bgGradient" x1="0%" y1="0%" x2="100%" y2="100%">
      <stop offset="0%" style="stop-color:#6366f1"/>
      <stop offset="100%" style="stop-color:#8b5cf6"/>
    </linearGradient>
    <linearGradient id="glowGradient" x1="0%" y1="0%" x2="100%" y2="100%">
      <stop offset="0%" style="stop-color:#a5b4fc"/>
      <stop offset="100%" style="stop-color:#c4b5fd"/>
    </linearGradient>
  </defs>
  
  <!-- Background circle -->
  <circle cx="256" cy="256" r="240" fill="url(#bgGradient)"/>
  
  <!-- Outer ring glow -->
  <circle cx="256" cy="256" r="220" fill="none" stroke="url(#glowGradient)" stroke-width="4" opacity="0.5"/>
  
  <!-- Browser window shape -->
  <rect x="96" y="128" width="320" height="256" rx="20" fill="#1a1a2e"/>
  
  <!-- Tab bar -->
  <rect x="96" y="128" width="320" height="40" rx="20" fill="#252538"/>
  <rect x="96" y="148" width="320" height="20" fill="#252538"/>
  
  <!-- Tab buttons -->
  <circle cx="124" cy="148" r="8" fill="#ef4444"/>
  <circle cx="148" cy="148" r="8" fill="#eab308"/>
  <circle cx="172" cy="148" r="8" fill="#22c55e"/>
  
  <!-- URL bar -->
  <rect x="200" y="140" width="180" height="16" rx="8" fill="#0f0f1a"/>
  
  <!-- Code brackets -->
  <path d="M180 280 L140 320 L180 360" stroke="#a5b4fc" stroke-width="16" stroke-linecap="round" stroke-linejoin="round" fill="none"/>
  <path d="M332 280 L372 320 L332 360" stroke="#a5b4fc" stroke-width="16" stroke-linecap="round" stroke-linejoin="round" fill="none"/>
  
  <!-- AI brain circle -->
  <circle cx="256" cy="320" r="40" fill="#6366f1"/>
  <circle cx="256" cy="320" r="30" fill="#818cf8"/>
  
  <!-- AI neural dots -->
  <circle cx="240" cy="310" r="6" fill="white"/>
  <circle cx="272" cy="310" r="6" fill="white"/>
  <circle cx="256" cy="335" r="8" fill="white"/>
  
  <!-- Connection lines -->
  <line x1="240" y1="310" x2="256" y2="335" stroke="white" stroke-width="2"/>
  <line x1="272" y1="310" x2="256" y2="335" stroke="white" stroke-width="2"/>
  <line x1="240" y1="310" x2="272" y2="310" stroke="white" stroke-width="2"/>
</svg>

